<svg xmlns="http://www.w3.org/2000/svg" viewBox="0 0 34 34"><defs><clipPath id="a" clipPathUnits="userSpaceOnUse"><path d="M0 792h612V0H0v792z"/></clipPath></defs><g clip-path="url(#a)" transform="matrix(.5058 0 0 -.5058 -72.889 177.036)"><path d="M183.995 331.137c-3.088 8.913 5.938 18.468 13.363 18.753 4.449-2.321 8.269-8.416 8.078-16.687-.583-10.19-7.793-18.972-15.64-27.063-.437 9.866-2.531 16.155-5.801 24.997" fill="#7cc734" fill-rule="evenodd"/><path d="M166.49 282.874c-1.243 9.949 2.796 18.436 6.805 23.611 1.905 2.43 3.37 4.647 4.484 6.689 2.106-.912 7.767-3.882 10.886-8.704-.453-6.995-5.622-19.725-22.176-21.596" fill="#3e7fca" fill-rule="evenodd"/><path d="M160.234 320.661c-13.175 3.685-16.425 15.26-15.837 23.043 12.794 5.186 26.563-.126 34.513-11.198 5.574-7.76 9.064-17.709 9.772-26.392-3.824 5.047-8.654 7.971-14.806 10.261-4.208 1.565-8.095 2.602-13.642 4.286" fill="#eb6e2e" fill-rule="evenodd"/></g></svg>